<?xml version="1.0" encoding="UTF-8"?>
<svg xmlns="http://www.w3.org/2000/svg" xmlns:xlink="http://www.w3.org/1999/xlink" viewBox="0 0 64 64" width="64px" height="64px">
<g id="surface29475297">
<path style=" stroke:none;fill-rule:evenodd;fill:rgb(90.196079%,56.862748%,25.882354%);fill-opacity:1;" d="M 32 8 C 18.742188 8 8 18.742188 8 32 C 8 42.601562 14.875 51.601562 24.414062 54.773438 C 25.617188 54.992188 26.054688 54.257812 26.054688 53.617188 C 26.054688 53.046875 26.03125 51.539062 26.023438 49.539062 C 19.34375 50.984375 17.9375 46.320312 17.9375 46.320312 C 16.84375 43.546875 15.273438 42.804688 15.273438 42.804688 C 13.09375 41.320312 15.4375 41.351562 15.4375 41.351562 C 17.84375 41.523438 19.109375 43.820312 19.109375 43.820312 C 21.25 47.492188 24.726562 46.429688 26.09375 45.820312 C 26.3125 44.265625 26.9375 43.210938 27.617188 42.609375 C 22.289062 42.007812 16.6875 39.945312 16.6875 30.75 C 16.6875 28.125 17.625 25.984375 19.15625 24.304688 C 18.914062 23.703125 18.085938 21.257812 19.390625 17.953125 C 19.390625 17.953125 21.40625 17.3125 25.992188 20.414062 C 27.90625 19.882812 29.960938 19.617188 32 19.609375 C 34.039062 19.617188 36.09375 19.882812 38.007812 20.414062 C 42.59375 17.3125 44.601562 17.953125 44.601562 17.953125 C 45.914062 21.257812 45.09375 23.703125 44.84375 24.304688 C 46.382812 25.984375 47.304688 28.125 47.304688 30.75 C 47.304688 39.96875 41.695312 41.992188 36.351562 42.59375 C 37.210938 43.328125 37.976562 44.796875 37.976562 47.03125 C 37.976562 50.242188 37.953125 52.828125 37.953125 53.617188 C 37.953125 54.257812 38.382812 55.007812 39.601562 54.773438 C 49.132812 51.59375 56 42.601562 56 32 C 56 18.742188 45.257812 8 32 8 Z M 32 8 "/>
</g>
</svg>
