<svg xmlns="http://www.w3.org/2000/svg"  viewBox="0 0 64 64" width="128px" height="128px"><g data-name="17-happy"><path fill="#a27154" d="M59,9s0,12.775-4,18L41,19.685A20.164,20.164,0,0,1,59,9Z"/><path fill="#e36861" d="M45.294,21.928C50.329,15.362,59,9,59,9s0,12.775-4,18Z"/><path fill="#a27154" d="M5,9S5,21.775,9,27l14-7.315A20.164,20.164,0,0,0,5,9Z"/><path fill="#e36861" d="M18.706,21.928C13.671,15.362,5,9,5,9S5,21.775,9,27Z"/><path fill="#d89670" d="M32,63c13,0,25-8,25-8l4,1a9.358,9.358,0,0,0-1-7h3c0-8-3-11-3-11h3c0-16-19-23-31-23S1,22,1,38H4S1,41,1,49H4a9.358,9.358,0,0,0-1,7l4-1S19,63,32,63Z"/><path fill="#f6f0e5" d="M57,55s0-11-14-13c-5,0-5-5-11-5s-6,5-11,5C7,44,7,55,7,55s12,8,25,8S57,55,57,55Z"/><path fill="#e36861" d="M32,46s-4-1-4-3,1-3,4-3,4,1,4,3S32,46,32,46Z"/><path fill="#8f6f61" d="M32,15c-.647,0-1.317.024-2,.065V23a2,2,0,0,0,4,0V15.065C33.317,15.024,32.647,15,32,15Z"/><path fill="#8f6f61" d="M20,16.953V21a2,2,0,0,0,4,0V15.9C22.674,16.18,21.334,16.531,20,16.953Z"/><path fill="#8f6f61" d="M40,15.9V21a2,2,0,0,0,4,0V16.953C42.666,16.531,41.326,16.18,40,15.9Z"/><polygon fill="#b295f0" points="32 11 28 1 36 1 32 11"/><polygon fill="#f5b3bd" points="39 13 41 3 49 3 39 13"/><polygon fill="#f5b3bd" points="25 13 23 3 15 3 25 13"/><path d="M63,39a1,1,0,0,0,1-1,19.56,19.56,0,0,0-6.206-14.284C59.968,17.663,60,9.363,60,9a1,1,0,0,0-1-1,21.064,21.064,0,0,0-16.363,7.5A40.943,40.943,0,0,0,32,14a40.943,40.943,0,0,0-10.637,1.5A21.064,21.064,0,0,0,5,8,1,1,0,0,0,4,9c0,.363.032,8.663,2.206,14.716A19.56,19.56,0,0,0,0,38a1,1,0,0,0,1,1H2.116A20.864,20.864,0,0,0,0,49a1,1,0,0,0,1,1H2.408a10.42,10.42,0,0,0-.378,6.242,1,1,0,0,0,1.212.728l3.58-.895C9.005,57.457,19.981,64,32,64S55,57.457,57.178,56.075l3.58.895a1,1,0,0,0,1.212-.728A10.42,10.42,0,0,0,61.592,50H63a1,1,0,0,0,1-1,20.864,20.864,0,0,0-2.116-10ZM49.884,18.235a90.646,90.646,0,0,1,8.05-7.153A47.985,47.985,0,0,1,56.18,22.253,32,32,0,0,0,49.884,18.235Zm5.886-7.987a87.655,87.655,0,0,0-7.814,7.1c-1.055-.449-2.13-.85-3.213-1.207A18.608,18.608,0,0,1,55.77,10.248ZM41,17.132c.667.161,1.334.338,2,.536V21a1,1,0,0,1-2,0Zm-8-1.115V23a1,1,0,0,1-2,0V16.017c.337-.01.671-.017,1-.017S32.663,16.007,33,16.017ZM21,17.668c.666-.2,1.333-.375,2-.536V21a1,1,0,0,1-2,0Zm-1.743-1.527c-1.083.357-2.158.758-3.213,1.207a87.516,87.516,0,0,0-7.814-7.1A18.608,18.608,0,0,1,19.257,16.141ZM6.066,11.082a90.646,90.646,0,0,1,8.05,7.153,32,32,0,0,0-6.3,4.018A48.053,48.053,0,0,1,6.066,11.082ZM61.983,48H60a1,1,0,0,0-.834,1.551,8.447,8.447,0,0,1,1.048,5.221l-2.268-.566a14.1,14.1,0,0,0-3.621-7.883,1,1,0,1,0-1.472,1.354,12.2,12.2,0,0,1,3.107,6.8C53.628,55.916,43.122,62,32,62c-11.107,0-21.625-6.085-23.96-7.526a12.208,12.208,0,0,1,3.107-6.8,1,1,0,1,0-1.472-1.354,14.1,14.1,0,0,0-3.621,7.883l-2.268.566a8.442,8.442,0,0,1,1.046-5.217A1,1,0,0,0,4,48H2.017c.226-6.661,2.671-9.272,2.69-9.293A1,1,0,0,0,4,37H2.027C2.541,27.507,10.349,21.375,19,18.317V21a3,3,0,0,0,6,0V16.7a39.728,39.728,0,0,1,4-.556V23a3,3,0,0,0,6,0V16.139a39.728,39.728,0,0,1,4,.556V21a3,3,0,0,0,6,0V18.317C53.651,21.375,61.459,27.507,61.973,37H60a1,1,0,0,0-.714,1.7C59.312,38.728,61.757,41.339,61.983,48Z"/><path d="M43,41c-2,0-3-.912-4.264-2.067a9.2,9.2,0,0,0-13.472,0C24,40.088,23,41,21,41a1,1,0,0,0,0,2c2.773,0,4.281-1.376,5.612-2.591C27.969,39.17,29.251,38,32,38s4.031,1.17,5.388,2.409C38.719,41.624,40.227,43,43,43a1,1,0,0,0,0-2Z"/><path d="M42.246,49.033a1,1,0,0,0-1.215.72C41,49.886,40.149,53,37,53c-2.68,0-3.708-.956-4-1.31V46.748c1.413-.465,4-1.609,4-3.748,0-4-3.764-4-5-4s-5,0-5,4c0,2.139,2.587,3.283,4,3.748v4.937C30.692,52.059,29.66,53,27,53c-3.149,0-4-3.114-4.03-3.242a1,1,0,1,0-1.94.484A6.256,6.256,0,0,0,27,55a7.513,7.513,0,0,0,5-1.494A7.513,7.513,0,0,0,37,55a6.256,6.256,0,0,0,5.97-4.758A1,1,0,0,0,42.246,49.033ZM29,43c0-.938,0-2,3-2s3,1.062,3,2c0,.733-1.7,1.586-3,1.964C30.7,44.586,29,43.733,29,43Z"/><path d="M50,47H46a1,1,0,0,0,0,2h4a1,1,0,0,0,0-2Z"/><path d="M50.242,51.03l-4-1a1,1,0,0,0-.484,1.94l4,1A1.017,1.017,0,0,0,50,53a1,1,0,0,0,.241-1.97Z"/><path d="M45.758,44.03A1,1,0,0,0,46,46a1.017,1.017,0,0,0,.243-.03l4-1a1,1,0,1,0-.484-1.94Z"/><path d="M18,47H14a1,1,0,0,0,0,2h4a1,1,0,0,0,0-2Z"/><path d="M17.758,50.03l-4,1A1,1,0,0,0,14,53a1.017,1.017,0,0,0,.243-.03l4-1a1,1,0,0,0-.484-1.94Z"/><path d="M13.758,44.97l4,1A1.017,1.017,0,0,0,18,46a1,1,0,0,0,.241-1.97l-4-1a1,1,0,1,0-.484,1.94Z"/><path d="M14.754,35.967a1.007,1.007,0,0,0,1.215-.72C16,35.114,16.851,32,20,32s4,3.114,4.03,3.242A1,1,0,0,0,25,36a1.017,1.017,0,0,0,.243-.03,1,1,0,0,0,.728-1.212A6.256,6.256,0,0,0,20,30a6.256,6.256,0,0,0-5.97,4.758A1,1,0,0,0,14.754,35.967Z"/><path d="M48.031,35.246A1,1,0,0,0,49,36a1.017,1.017,0,0,0,.243-.03,1,1,0,0,0,.728-1.212,6.124,6.124,0,0,0-11.94,0,1,1,0,0,0,1.939.489C40,35.114,40.851,32,44,32S47.994,35.106,48.031,35.246Z"/><path d="M31.071,11.372a1,1,0,0,0,1.858,0l4-10A1,1,0,0,0,36,0H28a1,1,0,0,0-.929,1.372ZM34.523,2,32,8.308,29.477,2Z"/><path d="M38.528,13.882a1,1,0,0,0,1.179-.175l10-10A1,1,0,0,0,49,2H41a1,1,0,0,0-.98.8l-2,10A1,1,0,0,0,38.528,13.882ZM41.819,4h4.767L40.628,9.958Z"/><path d="M24.293,13.707a1,1,0,0,0,1.687-.9l-2-10A1,1,0,0,0,23,2H15a1,1,0,0,0-.707,1.707ZM22.181,4l1.191,5.958L17.414,4Z"/></g></svg>