<?xml version="1.0" encoding="UTF-8"?>
<svg xmlns="http://www.w3.org/2000/svg" xmlns:xlink="http://www.w3.org/1999/xlink" viewBox="0 0 150 150" width="150px" height="150px">
<g id="surface40832586">
<rect x="0" y="0" width="150" height="150" style="fill:rgb(98.431373%,67.058825%,37.64706%);fill-opacity:1;stroke:none;"/>
<path style=" stroke:none;fill-rule:nonzero;fill:rgb(0%,0%,0%);fill-opacity:1;" d="M 92.027344 16.875 C 85.613281 16.859375 78.722656 21.226562 73.917969 28.324219 C 70.558594 33.285156 68.847656 38.722656 68.863281 43.609375 C 68.875 48.269531 70.53125 52.558594 74.070312 55.023438 C 76.074219 56.421875 78.449219 57.054688 80.878906 57.015625 C 87.226562 56.917969 94.003906 52.578125 98.75 45.566406 C 102.097656 40.621094 103.808594 35.203125 103.804688 30.328125 C 103.800781 25.65625 102.148438 21.34375 98.601562 18.871094 C 96.660156 17.511719 94.367188 16.882812 92.027344 16.875 Z M 92.019531 20.625 C 93.707031 20.628906 95.1875 21.058594 96.453125 21.945312 C 98.773438 23.5625 100.054688 26.519531 100.054688 30.332031 C 100.058594 34.3125 98.605469 39.085938 95.644531 43.464844 C 91.445312 49.671875 85.414062 53.195312 80.820312 53.265625 C 79.066406 53.292969 77.527344 52.863281 76.214844 51.945312 C 73.898438 50.332031 72.625 47.398438 72.613281 43.597656 C 72.601562 39.609375 74.046875 34.816406 77.019531 30.425781 L 77.023438 30.425781 C 81.277344 24.140625 87.398438 20.613281 92.019531 20.625 Z M 93.835938 22.933594 L 92.335938 23.6875 L 92.039062 25.339844 L 93.1875 26.566406 L 93.835938 26.683594 L 95.339844 25.929688 L 95.636719 24.277344 L 94.488281 23.050781 Z M 50.828125 24.671875 C 44.050781 24.683594 38.101562 31.28125 35.902344 40.046875 C 35.328125 42.324219 35.0625 44.585938 35.070312 46.742188 C 35.085938 50.328125 35.851562 53.640625 37.335938 56.332031 C 38.816406 59.019531 41.085938 61.113281 43.976562 61.890625 C 44.804688 62.113281 45.648438 62.21875 46.488281 62.214844 C 53.253906 62.1875 59.1875 55.597656 61.382812 46.84375 C 61.949219 44.59375 62.214844 42.367188 62.214844 40.238281 L 62.214844 40.234375 C 62.214844 36.632812 61.453125 33.296875 59.96875 30.589844 C 58.488281 27.882812 56.207031 25.777344 53.308594 24.996094 C 52.488281 24.777344 51.65625 24.671875 50.828125 24.671875 Z M 50.832031 28.421875 C 51.339844 28.421875 51.839844 28.488281 52.335938 28.621094 L 52.339844 28.621094 C 54.09375 29.09375 55.570312 30.367188 56.683594 32.390625 C 57.792969 34.417969 58.464844 37.171875 58.464844 40.238281 C 58.464844 42.054688 58.238281 43.980469 57.746094 45.929688 C 55.839844 53.527344 50.609375 58.449219 46.46875 58.464844 C 45.957031 58.46875 45.453125 58.40625 44.953125 58.273438 C 43.203125 57.800781 41.730469 56.535156 40.621094 54.523438 C 39.511719 52.507812 38.835938 49.777344 38.820312 46.730469 C 38.816406 44.886719 39.042969 42.9375 39.539062 40.960938 L 39.539062 40.957031 C 41.449219 33.351562 46.683594 28.433594 50.832031 28.421875 Z M 94.195312 30.382812 L 92.695312 31.136719 L 92.398438 32.785156 L 93.546875 34.015625 L 94.195312 34.132812 L 95.699219 33.375 L 95.996094 31.726562 L 94.847656 30.496094 Z M 52.5 31.875 L 51 32.628906 L 50.703125 34.28125 L 51.847656 35.507812 L 52.5 35.625 L 54 34.871094 L 54.296875 33.21875 L 53.152344 31.992188 Z M 91.890625 37.472656 L 90.386719 38.226562 L 90.089844 39.875 L 91.238281 41.105469 L 91.890625 41.222656 L 93.390625 40.46875 L 93.6875 38.816406 L 92.542969 37.585938 Z M 53.328125 39.277344 L 51.824219 40.03125 L 51.53125 41.683594 L 52.675781 42.910156 L 53.328125 43.027344 L 54.828125 42.273438 L 55.125 40.621094 L 53.976562 39.394531 Z M 87.125 43.210938 L 85.625 43.964844 L 85.328125 45.617188 L 86.472656 46.84375 L 87.125 46.960938 L 88.625 46.207031 L 88.921875 44.554688 L 87.773438 43.328125 Z M 51 46.34375 L 49.496094 47.09375 L 49.199219 48.75 L 50.351562 49.976562 L 51 50.09375 L 52.503906 49.339844 L 52.796875 47.6875 L 51.648438 46.460938 Z M 80.625 46.875 L 79.125 47.628906 L 78.828125 49.28125 L 79.972656 50.507812 L 80.625 50.625 L 82.125 49.871094 L 82.421875 48.21875 L 81.277344 46.992188 Z M 121.546875 48.070312 C 116.671875 48.066406 111.253906 49.777344 106.308594 53.125 C 99.296875 57.871094 94.957031 64.648438 94.859375 70.996094 C 94.820312 73.425781 95.453125 75.800781 96.851562 77.804688 C 99.316406 81.34375 103.605469 83 108.265625 83.011719 C 113.152344 83.027344 118.589844 81.316406 123.550781 77.957031 C 130.648438 73.152344 135.015625 66.261719 135 59.847656 C 134.992188 57.503906 134.359375 55.21875 133.007812 53.28125 L 133.007812 53.277344 C 130.535156 49.726562 126.21875 48.074219 121.546875 48.070312 Z M 121.542969 51.820312 C 125.355469 51.820312 128.3125 53.101562 129.929688 55.421875 C 130.816406 56.695312 131.246094 58.167969 131.25 59.855469 C 131.261719 64.476562 127.734375 70.597656 121.449219 74.851562 C 117.058594 77.828125 112.265625 79.273438 108.277344 79.261719 C 104.476562 79.25 101.542969 77.976562 99.929688 75.660156 C 99.011719 74.347656 98.582031 72.808594 98.609375 71.054688 C 98.679688 66.460938 102.203125 60.429688 108.410156 56.230469 C 112.789062 53.269531 117.5625 51.816406 121.542969 51.820312 Z M 45.976562 51.828125 L 44.476562 52.585938 L 44.179688 54.234375 L 45.324219 55.460938 L 45.976562 55.578125 L 47.480469 54.828125 L 47.777344 53.171875 L 46.625 51.945312 Z M 127.441406 56.429688 L 125.941406 57.179688 L 125.644531 58.835938 L 126.789062 60.0625 L 127.441406 60.179688 L 128.941406 59.425781 L 129.238281 57.773438 L 128.089844 56.546875 Z M 124.15625 63.132812 L 122.65625 63.890625 L 122.359375 65.539062 L 123.507812 66.769531 L 124.15625 66.886719 L 125.660156 66.132812 L 125.953125 64.480469 L 124.808594 63.253906 Z M 118.984375 68.519531 L 117.484375 69.273438 L 117.1875 70.925781 L 118.335938 72.152344 L 118.984375 72.269531 L 120.492188 71.515625 L 120.785156 69.863281 L 119.636719 68.636719 Z M 59.042969 68.867188 C 46.460938 68.867188 37.746094 71.25 31.789062 74.097656 C 25.832031 76.949219 22.609375 80.3125 21.15625 81.875 L 21.152344 81.875 C 18.273438 84.964844 16.871094 88.917969 16.878906 92.839844 C 16.886719 96.976562 18.476562 101.132812 21.625 104.277344 C 25.117188 107.765625 28.417969 109.007812 31.148438 109.90625 C 33.882812 110.804688 35.929688 111.367188 38.222656 113.65625 C 40.511719 115.949219 41.074219 117.996094 41.972656 120.730469 C 42.871094 123.460938 44.109375 126.765625 47.601562 130.257812 C 50.75 133.410156 54.894531 134.996094 59.039062 135.003906 C 62.945312 135.011719 66.886719 133.609375 69.976562 130.75 C 73.527344 127.453125 83.011719 115.457031 83.011719 92.835938 L 83.011719 92.832031 C 83.011719 91.753906 82.941406 90.660156 82.792969 89.558594 C 81.386719 79 72.875 70.492188 62.320312 69.085938 C 61.214844 68.9375 60.121094 68.867188 59.042969 68.867188 Z M 112.382812 71.992188 L 110.882812 72.742188 L 110.585938 74.398438 L 111.730469 75.625 L 112.382812 75.742188 L 113.882812 74.988281 L 114.179688 73.332031 L 113.03125 72.105469 Z M 59.042969 72.617188 C 59.957031 72.617188 60.886719 72.671875 61.824219 72.800781 L 61.824219 72.804688 L 61.828125 72.804688 C 70.667969 73.980469 77.898438 81.207031 79.074219 90.050781 C 79.203125 90.992188 79.261719 91.921875 79.261719 92.839844 C 79.261719 114.402344 70.050781 125.5625 67.421875 128 C 65.054688 130.195312 62.058594 131.257812 59.046875 131.253906 C 55.851562 131.25 52.6875 130.042969 50.25 127.605469 C 47.253906 124.605469 46.40625 122.203125 45.535156 119.558594 C 44.664062 116.910156 43.777344 113.910156 40.871094 111.007812 C 37.96875 108.101562 34.96875 107.214844 32.320312 106.34375 C 29.675781 105.472656 27.273438 104.625 24.273438 101.628906 C 21.84375 99.199219 20.636719 96.023438 20.628906 92.832031 C 20.621094 89.804688 21.6875 86.804688 23.898438 84.429688 C 25.3125 82.910156 28 80.070312 33.410156 77.484375 C 38.820312 74.894531 46.933594 72.617188 59.042969 72.617188 Z M 105 73.125 L 103.5 73.878906 L 103.203125 75.53125 L 104.347656 76.757812 L 105 76.875 L 106.5 76.121094 L 106.796875 74.46875 L 105.652344 73.242188 Z M 71.25 82.5 L 69.75 83.253906 L 69.453125 84.90625 L 70.597656 86.132812 L 71.25 86.25 L 72.75 85.496094 L 73.046875 83.84375 L 71.902344 82.617188 Z M 111.636719 89.660156 C 109.507812 89.660156 107.28125 89.925781 105.03125 90.492188 L 105.027344 90.492188 C 96.277344 92.6875 89.6875 98.621094 89.660156 105.386719 C 89.65625 106.226562 89.761719 107.070312 89.984375 107.898438 C 90.761719 110.789062 92.855469 113.058594 95.542969 114.539062 C 98.234375 116.023438 101.546875 116.789062 105.132812 116.804688 C 107.289062 116.8125 109.550781 116.546875 111.828125 115.972656 C 120.59375 113.773438 127.1875 107.828125 127.203125 101.050781 L 127.203125 101.046875 C 127.207031 100.21875 127.097656 99.382812 126.878906 98.566406 C 126.097656 95.667969 123.992188 93.386719 121.285156 91.902344 C 118.578125 90.421875 115.242188 89.660156 111.640625 89.660156 Z M 72.785156 89.835938 L 71.28125 90.589844 L 70.984375 92.242188 L 72.132812 93.46875 L 72.785156 93.585938 L 74.285156 92.835938 L 74.582031 91.179688 L 73.433594 89.953125 Z M 111.636719 93.410156 C 114.703125 93.410156 117.457031 94.082031 119.484375 95.191406 C 121.511719 96.304688 122.78125 97.785156 123.253906 99.539062 C 123.390625 100.039062 123.453125 100.539062 123.453125 101.042969 C 123.445312 105.1875 118.527344 110.425781 110.917969 112.335938 L 110.914062 112.335938 C 108.9375 112.832031 106.988281 113.058594 105.148438 113.054688 C 102.097656 113.039062 99.367188 112.363281 97.351562 111.253906 C 95.339844 110.144531 94.074219 108.671875 93.601562 106.921875 C 93.46875 106.421875 93.40625 105.917969 93.410156 105.40625 C 93.425781 101.265625 98.347656 96.035156 105.945312 94.128906 C 107.894531 93.636719 109.820312 93.410156 111.636719 93.410156 Z M 73.1875 97.316406 L 71.6875 98.066406 L 71.390625 99.722656 L 72.535156 100.949219 L 73.1875 101.066406 L 74.6875 100.3125 L 74.984375 98.660156 L 73.839844 97.433594 Z M 117.578125 101.867188 L 116.078125 102.625 L 115.78125 104.273438 L 116.925781 105.5 L 117.578125 105.617188 L 119.082031 104.867188 L 119.378906 103.210938 L 118.226562 101.984375 Z M 97.5 103.125 L 96 103.878906 L 95.703125 105.53125 L 96.847656 106.757812 L 97.5 106.875 L 99 106.121094 L 99.296875 104.46875 L 98.152344 103.242188 Z M 72.589844 104.789062 L 71.089844 105.539062 L 70.792969 107.195312 L 71.941406 108.421875 L 72.589844 108.539062 L 74.09375 107.785156 L 74.386719 106.132812 L 73.242188 104.90625 Z M 111.464844 106.078125 L 109.957031 106.832031 L 109.664062 108.488281 L 110.8125 109.714844 L 111.464844 109.828125 L 112.964844 109.074219 L 113.261719 107.421875 L 112.113281 106.195312 Z M 104.082031 106.535156 L 102.578125 107.289062 L 102.28125 108.945312 L 103.429688 110.171875 L 104.082031 110.285156 L 105.582031 109.535156 L 105.878906 107.878906 L 104.734375 106.652344 Z M 70.769531 112.046875 L 69.265625 112.800781 L 68.972656 114.453125 L 70.117188 115.679688 L 70.769531 115.796875 L 72.273438 115.042969 L 72.570312 113.390625 L 71.417969 112.164062 Z M 67.003906 118.496094 L 65.503906 119.246094 L 65.207031 120.902344 L 66.355469 122.128906 L 67.003906 122.246094 L 68.507812 121.492188 L 68.804688 119.839844 L 67.65625 118.613281 Z M 54.300781 121.980469 L 52.800781 122.730469 L 52.503906 124.386719 L 53.652344 125.613281 L 54.300781 125.730469 L 55.808594 124.976562 L 56.101562 123.320312 L 54.953125 122.09375 Z M 61.269531 123.230469 L 59.769531 123.984375 L 59.472656 125.636719 L 60.617188 126.863281 L 61.269531 126.980469 L 62.773438 126.230469 L 63.070312 124.574219 L 61.921875 123.347656 Z M 61.269531 123.230469 "/>
</g>
</svg>
