<svg xmlns="http://www.w3.org/2000/svg"  viewBox="0 0 64 64" width="128px" height="128px"><g data-name="11-sad"><path fill="#a27154" d="M59,9s0,12.775-4,18L41,19.685A20.164,20.164,0,0,1,59,9Z"/><path fill="#e36861" d="M45.294,21.928C50.329,15.362,59,9,59,9s0,12.775-4,18Z"/><path fill="#a27154" d="M5,9S5,21.775,9,27l14-7.315A20.164,20.164,0,0,0,5,9Z"/><path fill="#e36861" d="M18.706,21.928C13.671,15.362,5,9,5,9S5,21.775,9,27Z"/><path fill="#d89670" d="M32,63c13,0,25-8,25-8l4,1a9.358,9.358,0,0,0-1-7h3c0-8-3-11-3-11h3c0-16-19-23-31-23S1,22,1,38H4S1,41,1,49H4a9.358,9.358,0,0,0-1,7l4-1S19,63,32,63Z"/><path fill="#f6f0e5" d="M57,55s0-11-14-13c-5,0-5-5-11-5s-6,5-11,5C7,44,7,55,7,55s12,8,25,8S57,55,57,55Z"/><path fill="#e36861" d="M32,46s-4-1-4-3,1-3,4-3,4,1,4,3S32,46,32,46Z"/><path fill="#8f6f61" d="M32,15c-.647,0-1.317.024-2,.065V23a2,2,0,0,0,4,0V15.065C33.317,15.024,32.647,15,32,15Z"/><path fill="#8f6f61" d="M20,16.953V21a2,2,0,0,0,4,0V15.9C22.674,16.18,21.334,16.531,20,16.953Z"/><path fill="#8f6f61" d="M40,15.9V21a2,2,0,0,0,4,0V16.953C42.666,16.531,41.326,16.18,40,15.9Z"/><path fill="#ccc7be" d="M30,5a3.994,3.994,0,0,0-7.632-1.656A2.995,2.995,0,1,0,21,9h9a2,2,0,0,0,0-4Z"/><path d="M63,39a1,1,0,0,0,1-1,19.56,19.56,0,0,0-6.206-14.284C59.968,17.663,60,9.363,60,9a1,1,0,0,0-1-1,21.064,21.064,0,0,0-16.363,7.5A40.943,40.943,0,0,0,32,14a40.943,40.943,0,0,0-10.637,1.5A21.064,21.064,0,0,0,5,8,1,1,0,0,0,4,9c0,.363.032,8.663,2.206,14.716A19.56,19.56,0,0,0,0,38a1,1,0,0,0,1,1H2.116A20.864,20.864,0,0,0,0,49a1,1,0,0,0,1,1H2.408a10.422,10.422,0,0,0-.378,6.243,1,1,0,0,0,1.212.727l3.58-.895C9.005,57.457,19.981,64,32,64S55,57.457,57.178,56.075l3.58.895a1,1,0,0,0,1.212-.727A10.422,10.422,0,0,0,61.592,50H63a1,1,0,0,0,1-1,20.864,20.864,0,0,0-2.116-10ZM49.884,18.235a90.646,90.646,0,0,1,8.05-7.153A47.985,47.985,0,0,1,56.18,22.253,32,32,0,0,0,49.884,18.235Zm5.886-7.987a87.655,87.655,0,0,0-7.814,7.1c-1.055-.449-2.13-.85-3.213-1.207A18.608,18.608,0,0,1,55.77,10.248ZM41,17.132c.667.161,1.334.338,2,.536V21a1,1,0,0,1-2,0Zm-8-1.115V23a1,1,0,0,1-2,0V16.017c.337-.01.671-.017,1-.017S32.663,16.007,33,16.017ZM21,17.668c.666-.2,1.333-.375,2-.536V21a1,1,0,0,1-2,0Zm-1.743-1.527c-1.083.357-2.158.758-3.213,1.207a87.516,87.516,0,0,0-7.814-7.1A18.608,18.608,0,0,1,19.257,16.141ZM6.066,11.082a90.646,90.646,0,0,1,8.05,7.153,32,32,0,0,0-6.3,4.018A48.053,48.053,0,0,1,6.066,11.082ZM61.983,48H60a1,1,0,0,0-.834,1.551,8.447,8.447,0,0,1,1.048,5.221l-2.269-.566a14.1,14.1,0,0,0-3.62-7.883,1,1,0,1,0-1.472,1.353,12.206,12.206,0,0,1,3.107,6.8C53.628,55.916,43.122,62,32,62S10.367,55.911,8.037,54.473a12.119,12.119,0,0,1,3.11-6.8,1,1,0,1,0-1.472-1.353,14.1,14.1,0,0,0-3.62,7.883l-2.269.566a8.444,8.444,0,0,1,1.046-5.217A1,1,0,0,0,4,48H2.017c.226-6.661,2.671-9.272,2.69-9.293A1,1,0,0,0,4,37H2.027C2.541,27.507,10.349,21.375,19,18.317V21a3,3,0,0,0,6,0V16.7a39.728,39.728,0,0,1,4-.556V23a3,3,0,0,0,6,0V16.139a39.728,39.728,0,0,1,4,.556V21a3,3,0,0,0,6,0V18.317C53.651,21.375,61.459,27.507,61.973,37H60a1,1,0,0,0-.714,1.7C59.312,38.728,61.757,41.339,61.983,48Z"/><path d="M43,41c-2,0-3-.913-4.264-2.068a9.2,9.2,0,0,0-13.472,0C24,40.087,23,41,21,41a1,1,0,0,0,0,2c2.773,0,4.281-1.376,5.612-2.591C27.969,39.17,29.251,38,32,38s4.031,1.17,5.388,2.409C38.719,41.624,40.227,43,43,43a1,1,0,0,0,0-2Z"/><path d="M50,47H46a1,1,0,0,0,0,2h4a1,1,0,0,0,0-2Z"/><path d="M50.242,51.03l-4-1a1,1,0,1,0-.484,1.94l4,1A.968.968,0,0,0,50,53a1,1,0,0,0,.241-1.97Z"/><path d="M45.758,44.03A1,1,0,0,0,46,46a.968.968,0,0,0,.243-.03l4-1a1,1,0,1,0-.484-1.94Z"/><path d="M18,47H14a1,1,0,0,0,0,2h4a1,1,0,0,0,0-2Z"/><path d="M17.758,50.03l-4,1A1,1,0,0,0,14,53a.968.968,0,0,0,.243-.03l4-1a1,1,0,1,0-.484-1.94Z"/><path d="M13.758,44.97l4,1A.968.968,0,0,0,18,46a1,1,0,0,0,.241-1.97l-4-1a1,1,0,1,0-.484,1.94Z"/><path d="M33,51.043V46.749c1.413-.466,4-1.61,4-3.749,0-4-3.764-4-5-4s-5,0-5,4c0,2.139,2.587,3.283,4,3.749v4.294c-5.82.43-6.924,4.53-6.97,4.714a1,1,0,0,0,1.938.5C26,56.12,26.917,53,32,53s6,3.12,6.03,3.243A1,1,0,0,0,39,57a.968.968,0,0,0,.243-.03,1,1,0,0,0,.728-1.213C39.924,55.573,38.82,51.473,33,51.043ZM29,43c0-.938,0-2,3-2s3,1.062,3,2c0,.733-1.7,1.586-3,1.964C30.7,44.586,29,43.733,29,43Z"/><path d="M15,37a.992.992,0,0,0,.143-.01c.3-.044,7.507-1.129,10.715-6.475a1,1,0,1,0-1.714-1.03C21.43,34.007,14.923,35,14.857,35.01A1,1,0,0,0,15,37Z"/><path d="M48.858,36.99a1,1,0,0,0,.285-1.98c-.066-.01-6.573-1-9.286-5.525a1,1,0,1,0-1.714,1.03C41.351,35.861,48.554,36.946,48.858,36.99Z"/><path d="M21,10h9a3,3,0,0,0,.927-5.854,4.992,4.992,0,0,0-9-2.032A3.84,3.84,0,0,0,21,2a4,4,0,0,0,0,8Zm0-6a1.985,1.985,0,0,1,.91.233,1,1,0,0,0,1.368-.474A2.994,2.994,0,0,1,29,5a1,1,0,0,0,1,1,1,1,0,0,1,0,2H21a2,2,0,0,1,0-4Z"/></g></svg>